<svg id="logo" width="516" height="95" viewBox="0 0 516 95" fill="none" xmlns="http://www.w3.org/2000/svg">
<path d="M54.6801 8.31999C57.5601 8.31999 59.9601 8.22399 61.8801 8.032V9.95199C58.6801 10.72 56.1521 13.504 54.2961 18.304L31.7361 76.48H30.2001L6.77611 16.096C5.24011 12.128 3.03211 10.08 0.152115 9.95199V8.032C2.71212 8.22399 6.13612 8.31999 10.4241 8.31999C15.9281 8.31999 20.0241 8.22399 22.7121 8.032V9.95199C20.2801 10.08 18.5201 10.4 17.4321 10.912C16.4081 11.36 15.8961 12.224 15.8961 13.504C15.8961 14.592 16.2801 16.096 17.0481 18.016L34.4241 64.192L50.0721 23.584C51.3521 20.128 51.9921 17.504 51.9921 15.712C51.9921 13.728 51.2881 12.288 49.8801 11.392C48.5361 10.496 46.4561 10.016 43.6401 9.95199V8.032C47.2881 8.22399 50.9681 8.31999 54.6801 8.31999Z" fill="black"/>
<path d="M75.8324 76.672C71.8004 76.672 68.7923 75.68 66.8083 73.696C64.8883 71.648 63.9284 68.832 63.9284 65.248C63.9284 62.368 64.6964 60 66.2324 58.144C67.8324 56.288 69.6884 54.816 71.8004 53.728C73.9764 52.64 76.8244 51.488 80.3444 50.272C83.9284 49.056 86.5844 47.936 88.3124 46.912C90.0404 45.888 90.9044 44.512 90.9044 42.784V36.832C90.9044 33.12 90.1044 30.592 88.5044 29.248C86.9684 27.84 84.7924 27.136 81.9764 27.136C77.4964 27.136 74.3284 28.288 72.4724 30.592C73.7524 30.912 74.8083 31.584 75.6404 32.608C76.5364 33.632 76.9844 34.912 76.9844 36.448C76.9844 38.048 76.4724 39.328 75.4484 40.288C74.4244 41.184 73.1124 41.632 71.5124 41.632C69.7204 41.632 68.3764 41.088 67.4804 40C66.5844 38.848 66.1364 37.472 66.1364 35.872C66.1364 34.336 66.4884 33.056 67.1924 32.032C67.9604 31.008 69.0804 29.984 70.5524 28.96C72.0884 27.872 74.0404 26.976 76.4084 26.272C78.7764 25.568 81.3684 25.216 84.1843 25.216C89.1763 25.216 92.9524 26.4 95.5124 28.768C97.1124 30.24 98.1684 32.032 98.6804 34.144C99.2564 36.192 99.5444 38.912 99.5444 42.304V68.992C99.5444 70.592 99.7684 71.744 100.216 72.448C100.664 73.152 101.432 73.504 102.52 73.504C103.288 73.504 103.992 73.344 104.632 73.024C105.336 72.64 106.072 72.128 106.84 71.488L107.896 73.12C106.232 74.4 104.792 75.328 103.576 75.904C102.424 76.416 100.952 76.672 99.1604 76.672C96.0884 76.672 93.9444 75.904 92.7284 74.368C91.5124 72.832 90.9044 70.752 90.9044 68.128C88.9844 71.328 86.7764 73.568 84.2804 74.848C81.7844 76.064 78.9684 76.672 75.8324 76.672ZM80.0564 72.832C84.2803 72.832 87.8964 70.4 90.9044 65.536V46.72C90.3284 47.616 89.5284 48.352 88.5044 48.928C87.4804 49.504 85.9124 50.272 83.8004 51.232C81.3684 52.256 79.3843 53.248 77.8484 54.208C76.3764 55.104 75.0964 56.352 74.0084 57.952C72.9204 59.552 72.3764 61.6 72.3764 64.096C72.3764 66.976 73.0803 69.152 74.4883 70.624C75.8963 72.096 77.7523 72.832 80.0564 72.832Z" fill="black"/>
<path d="M147.837 25.216C152.317 25.216 155.709 26.432 158.013 28.864C159.229 30.144 160.093 31.744 160.605 33.664C161.117 35.584 161.373 38.176 161.373 41.44V67.072C161.373 69.696 161.917 71.52 163.005 72.544C164.093 73.504 165.981 73.984 168.669 73.984V76C162.781 75.744 158.941 75.616 157.149 75.616C155.357 75.616 151.773 75.744 146.397 76V73.984C148.765 73.984 150.397 73.504 151.293 72.544C152.253 71.52 152.733 69.696 152.733 67.072V39.328C152.733 35.744 152.221 33.024 151.197 31.168C150.173 29.248 148.093 28.288 144.957 28.288C142.333 28.288 139.997 29.056 137.949 30.592C135.901 32.128 134.301 34.24 133.149 36.928C132.061 39.552 131.517 42.496 131.517 45.76V67.072C131.517 69.696 131.965 71.52 132.861 72.544C133.821 73.504 135.485 73.984 137.853 73.984V76C132.477 75.744 128.893 75.616 127.101 75.616C125.309 75.616 121.469 75.744 115.581 76V73.984C118.269 73.984 120.157 73.504 121.245 72.544C122.333 71.52 122.877 69.696 122.877 67.072V37.024C122.877 34.08 122.333 31.936 121.245 30.592C120.157 29.248 118.269 28.576 115.581 28.576V26.56C117.629 26.752 119.613 26.848 121.533 26.848C125.565 26.848 128.893 26.4 131.517 25.504V36.832C133.117 32.736 135.325 29.792 138.141 28C141.021 26.144 144.253 25.216 147.837 25.216Z" fill="black"/>
<path d="M219.326 64.48C218.174 68 215.998 71.04 212.798 73.6C209.662 76.096 205.854 77.344 201.374 77.344C196.83 77.344 192.894 76.32 189.566 74.272C186.238 72.16 183.678 69.248 181.886 65.536C180.158 61.76 179.294 57.408 179.294 52.48C179.294 46.912 180.19 42.08 181.982 37.984C183.774 33.888 186.302 30.752 189.566 28.576C192.83 26.336 196.638 25.216 200.99 25.216C206.75 25.216 211.166 26.976 214.238 30.496C217.374 33.952 218.942 39.232 218.942 46.336H188.894C188.702 48.128 188.606 50.176 188.606 52.48C188.606 56.704 189.278 60.384 190.622 63.52C192.03 66.656 193.854 69.088 196.094 70.816C198.398 72.48 200.798 73.312 203.294 73.312C206.366 73.312 209.086 72.576 211.454 71.104C213.822 69.632 215.806 67.168 217.406 63.712L219.326 64.48ZM200.606 27.04C197.598 27.04 195.006 28.512 192.83 31.456C190.654 34.4 189.31 38.752 188.798 44.512H209.726C209.854 39.52 209.118 35.36 207.518 32.032C205.982 28.704 203.678 27.04 200.606 27.04Z" fill="black"/>
<path d="M224.539 92.224C229.019 92.096 232.315 90.432 234.427 87.232C236.603 84.032 237.691 78.624 237.691 71.008V18.208C237.691 15.776 237.499 14.016 237.115 12.928C236.731 11.84 235.995 11.104 234.907 10.72C233.883 10.336 232.219 10.08 229.915 9.95199V8.032C232.603 8.22399 236.635 8.31999 242.011 8.31999C247.259 8.31999 251.387 8.22399 254.395 8.032V9.95199C252.091 10.08 250.395 10.336 249.307 10.72C248.283 11.104 247.579 11.84 247.195 12.928C246.811 14.016 246.619 15.776 246.619 18.208V53.344C246.619 58.784 246.523 63.616 246.331 67.84C246.139 72 245.691 75.52 244.987 78.4C243.835 83.072 241.467 86.848 237.883 89.728C234.363 92.608 229.915 94.048 224.539 94.048V92.224Z" fill="black"/>
<path d="M305.332 64.48C304.18 68 302.004 71.04 298.804 73.6C295.668 76.096 291.86 77.344 287.38 77.344C282.836 77.344 278.9 76.32 275.572 74.272C272.244 72.16 269.684 69.248 267.892 65.536C266.164 61.76 265.3 57.408 265.3 52.48C265.3 46.912 266.196 42.08 267.988 37.984C269.78 33.888 272.308 30.752 275.572 28.576C278.836 26.336 282.644 25.216 286.996 25.216C292.756 25.216 297.172 26.976 300.244 30.496C303.38 33.952 304.948 39.232 304.948 46.336H274.9C274.708 48.128 274.612 50.176 274.612 52.48C274.612 56.704 275.284 60.384 276.628 63.52C278.036 66.656 279.86 69.088 282.1 70.816C284.404 72.48 286.804 73.312 289.3 73.312C292.372 73.312 295.092 72.576 297.46 71.104C299.828 69.632 301.812 67.168 303.412 63.712L305.332 64.48ZM286.612 27.04C283.604 27.04 281.012 28.512 278.836 31.456C276.66 34.4 275.316 38.752 274.804 44.512H295.732C295.86 39.52 295.124 35.36 293.524 32.032C291.988 28.704 289.684 27.04 286.612 27.04Z" fill="black"/>
<path d="M380.208 26.848C383.024 26.848 385.456 26.752 387.504 26.56V28.48C386.16 28.672 384.976 29.28 383.952 30.304C382.928 31.264 382.032 32.896 381.264 35.2L367.344 76.48H365.712L350.544 37.888L336.816 76.48H335.184L319.44 33.952C318.544 31.712 317.616 30.272 316.656 29.632C315.76 28.928 314.832 28.576 313.872 28.576V26.56C316.368 26.944 319.184 27.136 322.32 27.136C325.52 27.136 329.68 26.944 334.8 26.56V28.576C332.432 28.576 330.704 28.768 329.616 29.152C328.592 29.536 328.08 30.528 328.08 32.128C328.08 33.28 328.4 34.784 329.04 36.64L338.64 64.288L352.464 26.176H354.672L369.36 64.96L378.384 37.504C378.96 35.776 379.248 34.336 379.248 33.184C379.248 31.648 378.704 30.528 377.616 29.824C376.528 29.12 374.704 28.672 372.144 28.48V26.56C375.536 26.752 378.224 26.848 380.208 26.848Z" fill="black"/>
<path d="M436.151 64.48C434.999 68 432.823 71.04 429.623 73.6C426.487 76.096 422.679 77.344 418.199 77.344C413.655 77.344 409.719 76.32 406.391 74.272C403.063 72.16 400.503 69.248 398.711 65.536C396.983 61.76 396.119 57.408 396.119 52.48C396.119 46.912 397.015 42.08 398.807 37.984C400.599 33.888 403.127 30.752 406.391 28.576C409.655 26.336 413.463 25.216 417.815 25.216C423.575 25.216 427.991 26.976 431.063 30.496C434.199 33.952 435.767 39.232 435.767 46.336H405.719C405.527 48.128 405.431 50.176 405.431 52.48C405.431 56.704 406.103 60.384 407.447 63.52C408.855 66.656 410.679 69.088 412.919 70.816C415.223 72.48 417.623 73.312 420.119 73.312C423.191 73.312 425.911 72.576 428.279 71.104C430.647 69.632 432.631 67.168 434.231 63.712L436.151 64.48ZM417.431 27.04C414.423 27.04 411.831 28.512 409.655 31.456C407.479 34.4 406.135 38.752 405.623 44.512H426.551C426.679 39.52 425.943 35.36 424.343 32.032C422.807 28.704 420.503 27.04 417.431 27.04Z" fill="black"/>
<path d="M463.114 67.072C463.114 69.696 463.658 71.52 464.746 72.544C465.834 73.504 467.722 73.984 470.41 73.984V76C464.522 75.744 460.65 75.616 458.794 75.616C456.938 75.616 453.066 75.744 447.178 76V73.984C449.866 73.984 451.754 73.504 452.842 72.544C453.93 71.52 454.474 69.696 454.474 67.072V12.256C454.474 9.31199 453.93 7.16799 452.842 5.824C451.754 4.47999 449.866 3.80799 447.178 3.80799V1.79199C449.162 1.98399 451.146 2.07999 453.13 2.07999C457.162 2.07999 460.49 1.63199 463.114 0.735992V67.072Z" fill="black"/>
<path d="M497.302 25.216C499.606 25.216 501.654 25.568 503.446 26.272C505.238 26.976 506.678 27.808 507.766 28.768C508.47 29.28 509.046 29.536 509.494 29.536C510.646 29.536 511.35 28.128 511.606 25.312H513.814C513.558 28.448 513.43 33.888 513.43 41.632H511.222C510.518 37.408 509.142 33.92 507.094 31.168C505.11 28.416 502.134 27.04 498.166 27.04C495.862 27.04 493.974 27.712 492.502 29.056C491.03 30.336 490.294 32.128 490.294 34.432C490.294 36.672 491.062 38.56 492.598 40.096C494.134 41.568 496.598 43.36 499.99 45.472C500.566 45.792 501.43 46.336 502.582 47.104C505.526 49.024 507.894 50.72 509.686 52.192C511.478 53.664 512.918 55.36 514.006 57.28C515.158 59.2 515.734 61.408 515.734 63.904C515.734 68.128 514.134 71.424 510.934 73.792C507.798 76.16 503.926 77.344 499.318 77.344C496.438 77.344 493.91 76.896 491.734 76C490.326 75.296 489.014 74.432 487.798 73.408C487.542 73.152 487.254 73.024 486.934 73.024C486.486 73.024 486.07 73.344 485.686 73.984C485.366 74.624 485.11 75.52 484.918 76.672H482.71C482.966 73.024 483.094 66.624 483.094 57.472H485.302C486.006 63.488 487.286 68 489.142 71.008C490.998 73.952 494.166 75.424 498.646 75.424C500.886 75.424 502.87 74.688 504.598 73.216C506.326 71.744 507.19 69.44 507.19 66.304C507.19 63.808 506.326 61.696 504.598 59.968C502.934 58.24 500.182 56.16 496.342 53.728C493.206 51.744 490.774 50.112 489.046 48.832C487.382 47.552 485.974 45.984 484.822 44.128C483.67 42.272 483.094 40.096 483.094 37.6C483.094 33.568 484.438 30.496 487.126 28.384C489.814 26.272 493.206 25.216 497.302 25.216Z" fill="black"/>
</svg>
