<svg width="93" height="104" viewBox="0 0 93 104" fill="none" xmlns="http://www.w3.org/2000/svg">
<path d="M81.928 0.479999C86.248 0.479999 89.848 0.336 92.728 0.0480042V2.928C87.928 4.08 84.136 8.256 81.352 15.456L47.512 102.72H45.208L10.072 12.144C7.76799 6.192 4.45599 3.12 0.135986 2.928V0.0480042C3.97599 0.336 9.11199 0.479999 15.544 0.479999C23.8 0.479999 29.944 0.336 33.976 0.0480042V2.928C30.328 3.12 27.688 3.6 26.056 4.368C24.52 5.04 23.752 6.336 23.752 8.256C23.752 9.888 24.328 12.144 25.48 15.024L51.544 84.288L75.016 23.376C76.936 18.192 77.896 14.256 77.896 11.568C77.896 8.592 76.84 6.432 74.728 5.088C72.712 3.744 69.592 3.024 65.368 2.928V0.0480042C70.84 0.336 76.36 0.479999 81.928 0.479999Z" fill="black"/>
<path d="M64.6734 101.355C68.8041 99.6164 71.2756 96.8733 72.0879 93.1262C72.9599 89.356 72.0192 83.9204 69.2658 76.8196L50.1775 27.5907C49.2983 25.3232 48.483 23.7517 47.7316 22.8761C46.9802 22.0005 46.0279 21.5804 44.8747 21.6157C43.7811 21.6279 42.1371 21.9907 39.9427 22.7043L39.2486 20.9142C41.8242 20.1215 45.6182 18.7533 50.6306 16.8098C55.5236 14.9125 59.3377 13.3306 62.0728 12.0642L62.767 13.8543C60.6651 14.8066 59.1763 15.6584 58.3007 16.4098C57.4848 17.138 57.0945 18.0787 57.1298 19.232C57.1651 20.3852 57.6224 22.0956 58.5016 24.3631L71.204 57.1226C73.1707 62.1947 74.8281 66.7346 76.1761 70.7423C77.5011 74.6903 78.3559 78.1342 78.7407 81.0739C79.3557 85.8464 78.5129 90.2231 76.2125 94.204C73.9718 98.1618 70.3452 101.112 65.3328 103.056L64.6734 101.355Z" fill="black"/>
</svg>